G04*
G04 #@! TF.GenerationSoftware,Altium Limited,Altium Designer,23.9.2 (47)*
G04*
G04 Layer_Color=16711935*
%FSLAX44Y44*%
%MOMM*%
G71*
G04*
G04 #@! TF.SameCoordinates,96740390-7EB4-44B9-9E62-99E587B0A754*
G04*
G04*
G04 #@! TF.FilePolarity,Negative*
G04*
G01*
G75*
%ADD75C,1.7032*%
%ADD76R,1.7032X1.7032*%
%ADD77C,2.9972*%
%ADD78R,1.4252X1.4252*%
%ADD79C,1.4252*%
%ADD80R,2.1832X2.1832*%
%ADD81C,2.1382*%
%ADD82C,2.1832*%
D75*
X374015Y365125D02*
D03*
X399415D02*
D03*
X424815D02*
D03*
X450215D02*
D03*
X475615D02*
D03*
X501015D02*
D03*
X526415D02*
D03*
X551815D02*
D03*
X577215D02*
D03*
X602615D02*
D03*
X628015D02*
D03*
X653415D02*
D03*
X678815D02*
D03*
X704215D02*
D03*
X729615D02*
D03*
X755015D02*
D03*
X780415D02*
D03*
X805815D02*
D03*
X384175Y26035D02*
D03*
X409575D02*
D03*
X434975D02*
D03*
X460375D02*
D03*
X485775D02*
D03*
X511175D02*
D03*
X536575D02*
D03*
X561975D02*
D03*
X587375D02*
D03*
X612775D02*
D03*
X638175D02*
D03*
X663575D02*
D03*
X688975D02*
D03*
X714375D02*
D03*
X739775D02*
D03*
X765175D02*
D03*
X790575D02*
D03*
X815975D02*
D03*
D76*
X831215Y365125D02*
D03*
X841375Y26035D02*
D03*
D77*
X893445Y349885D02*
D03*
X944245D02*
D03*
X1362075Y337185D02*
D03*
X1311275D02*
D03*
X1243965Y335915D02*
D03*
X1193165D02*
D03*
D78*
X1040765Y362585D02*
D03*
D79*
X1066165Y337185D02*
D03*
X1040765Y311785D02*
D03*
D80*
X1236305Y197795D02*
D03*
D81*
X1216305Y137795D02*
D03*
D82*
X1236305Y77795D02*
D03*
X1358305D02*
D03*
Y197795D02*
D03*
M02*
