G04*
G04 #@! TF.GenerationSoftware,Altium Limited,Altium Designer,23.9.2 (47)*
G04*
G04 Layer_Color=32896*
%FSLAX44Y44*%
%MOMM*%
G71*
G04*
G04 #@! TF.SameCoordinates,96740390-7EB4-44B9-9E62-99E587B0A754*
G04*
G04*
G04 #@! TF.FilePolarity,Positive*
G04*
G01*
G75*
%ADD99C,0.1200*%
D99*
X784414Y289358D02*
X799654D01*
Y285218D02*
Y289358D01*
X637576D02*
X653341D01*
X656013D01*
X634774D02*
X637576D01*
X656013D02*
X663895D01*
X666304D02*
X675194D01*
X663895D02*
X666304D01*
X637576D02*
X653341D01*
X613404D02*
X634774D01*
X799654Y266058D02*
Y285218D01*
X785684Y88698D02*
X799654D01*
Y110602D01*
Y150500D01*
Y218225D02*
Y266058D01*
X517714Y289358D02*
X542919D01*
X613404D01*
X517714Y280028D02*
Y289358D01*
X675194D02*
X784414D01*
X517714Y220495D02*
Y255853D01*
Y256369D02*
Y280028D01*
Y88698D02*
Y112356D01*
Y112872D02*
Y148230D01*
Y112356D02*
Y112872D01*
Y255853D02*
Y256369D01*
X760337Y88698D02*
X785684D01*
X712286D02*
X746963D01*
X760337D01*
X517714D02*
X602811D01*
X799654Y150500D02*
Y218225D01*
X517714Y148230D02*
Y220495D01*
X602811Y88698D02*
X712286D01*
M02*
