G04*
G04 #@! TF.GenerationSoftware,Altium Limited,Altium Designer,23.9.2 (47)*
G04*
G04 Layer_Color=2752767*
%FSLAX44Y44*%
%MOMM*%
G71*
G04*
G04 #@! TF.SameCoordinates,96740390-7EB4-44B9-9E62-99E587B0A754*
G04*
G04*
G04 #@! TF.FilePolarity,Positive*
G04*
G01*
G75*
%ADD15C,0.1270*%
%ADD106C,0.1693*%
D15*
X368935Y360045D02*
Y370205D01*
X379095D01*
Y360045D01*
X368935D01*
X394335D02*
Y370205D01*
X404495D01*
Y360045D01*
X394335D01*
X419735D02*
Y370205D01*
X429895D01*
Y360045D01*
X419735D01*
X445135D02*
Y370205D01*
X455295D01*
Y360045D01*
X445135D01*
X470535D02*
Y370205D01*
X480695D01*
Y360045D01*
X470535D01*
X495935D02*
Y370205D01*
X506095D01*
Y360045D01*
X495935D01*
X521335D02*
Y370205D01*
X531495D01*
Y360045D01*
X521335D01*
X546735D02*
Y370205D01*
X556895D01*
Y360045D01*
X546735D01*
X572135D02*
Y370205D01*
X582295D01*
Y360045D01*
X572135D01*
X597535D02*
Y370205D01*
X607695D01*
Y360045D01*
X597535D01*
X622935D02*
Y370205D01*
X633095D01*
Y360045D01*
X622935D01*
X648335D02*
Y370205D01*
X658495D01*
Y360045D01*
X648335D01*
X673735D02*
Y370205D01*
X683895D01*
Y360045D01*
X673735D01*
X699135D02*
Y370205D01*
X709295D01*
Y360045D01*
X699135D01*
X724535D02*
Y370205D01*
X734695D01*
Y360045D01*
X724535D01*
X749935D02*
Y370205D01*
X760095D01*
Y360045D01*
X749935D01*
X775335D02*
Y370205D01*
X785495D01*
Y360045D01*
X775335D01*
X800735D02*
Y370205D01*
X810895D01*
Y360045D01*
X800735D01*
X826135D02*
Y370205D01*
X836295D01*
Y360045D01*
X826135D01*
X1035685Y357505D02*
X1038225Y362585D01*
X1035685Y367665D01*
X1040765Y365125D01*
X1045845Y367665D01*
X1043305Y362585D01*
X1045845Y357505D01*
X1040765Y360045D01*
X1035685Y357505D01*
X1061085Y332105D02*
X1063625Y337185D01*
X1061085Y342265D01*
X1066165Y339725D01*
X1071245Y342265D01*
X1068705Y337185D01*
X1071245Y332105D01*
X1066165Y334645D01*
X1061085Y332105D01*
X1035685Y306705D02*
X1038225Y311785D01*
X1035685Y316865D01*
X1040765Y314325D01*
X1045845Y316865D01*
X1043305Y311785D01*
X1045845Y306705D01*
X1040765Y309245D01*
X1035685Y306705D01*
X379095Y20955D02*
Y31115D01*
X389255D01*
Y20955D01*
X379095D01*
X404495D02*
Y31115D01*
X414655D01*
Y20955D01*
X404495D01*
X429895D02*
Y31115D01*
X440055D01*
Y20955D01*
X429895D01*
X455295D02*
Y31115D01*
X465455D01*
Y20955D01*
X455295D01*
X480695D02*
Y31115D01*
X490855D01*
Y20955D01*
X480695D01*
X506095D02*
Y31115D01*
X516255D01*
Y20955D01*
X506095D01*
X531495D02*
Y31115D01*
X541655D01*
Y20955D01*
X531495D01*
X556895D02*
Y31115D01*
X567055D01*
Y20955D01*
X556895D01*
X582295D02*
Y31115D01*
X592455D01*
Y20955D01*
X582295D01*
X607695D02*
Y31115D01*
X617855D01*
Y20955D01*
X607695D01*
X633095D02*
Y31115D01*
X643255D01*
Y20955D01*
X633095D01*
X658495D02*
Y31115D01*
X668655D01*
Y20955D01*
X658495D01*
X683895D02*
Y31115D01*
X694055D01*
Y20955D01*
X683895D01*
X709295D02*
Y31115D01*
X719455D01*
Y20955D01*
X709295D01*
X734695D02*
Y31115D01*
X744855D01*
Y20955D01*
X734695D01*
X760095D02*
Y31115D01*
X770255D01*
Y20955D01*
X760095D01*
X785495D02*
Y31115D01*
X795655D01*
Y20955D01*
X785495D01*
X810895D02*
Y31115D01*
X821055D01*
Y20955D01*
X810895D01*
X836295D02*
Y31115D01*
X846455D01*
Y20955D01*
X836295D01*
X1236305Y192715D02*
X1231225Y202875D01*
X1241385D01*
X1236305Y192715D01*
X1216305Y132715D02*
X1218845Y135255D01*
X1221385D01*
X1218845Y137795D01*
X1221385Y140335D01*
X1218845D01*
X1216305Y142875D01*
X1213765Y140335D01*
X1211225D01*
X1213765Y137795D01*
X1211225Y135255D01*
X1213765D01*
X1216305Y132715D01*
X1236305Y72715D02*
X1231225Y82875D01*
X1241385D01*
X1236305Y72715D01*
X1358305D02*
X1353225Y82875D01*
X1363385D01*
X1358305Y72715D01*
Y192715D02*
X1353225Y202875D01*
X1363385D01*
X1358305Y192715D01*
X851535Y257175D02*
Y267335D01*
X861695D01*
Y257175D01*
X851535D01*
X853567Y259207D02*
Y265303D01*
X859663D01*
Y259207D01*
X853567D01*
X194945Y84455D02*
Y94615D01*
X205105D01*
Y84455D01*
X194945D01*
X196977Y86487D02*
Y92583D01*
X203073D01*
Y86487D01*
X196977D01*
X206375Y95885D02*
Y106045D01*
X216535D01*
Y95885D01*
X206375D01*
X208407Y97917D02*
Y104013D01*
X214503D01*
Y97917D01*
X208407D01*
X186055Y126365D02*
Y136525D01*
X196215D01*
Y126365D01*
X186055D01*
X188087Y128397D02*
Y134493D01*
X194183D01*
Y128397D01*
X188087D01*
X176868Y112293D02*
Y122453D01*
X187028D01*
Y112293D01*
X176868D01*
X178900Y114325D02*
Y120421D01*
X184996D01*
Y114325D01*
X178900D01*
X220345Y106045D02*
Y116205D01*
X230505D01*
Y106045D01*
X220345D01*
X222377Y108077D02*
Y114173D01*
X228473D01*
Y108077D01*
X222377D01*
X261901Y145939D02*
Y156099D01*
X272062D01*
Y145939D01*
X261901D01*
X263934Y147971D02*
Y154067D01*
X270030D01*
Y147971D01*
X263934D01*
X937895Y272415D02*
X940435D01*
X942975Y274955D01*
X945515Y272415D01*
X948055D01*
Y274955D01*
X945515Y277495D01*
X948055Y280035D01*
Y282575D01*
X945515D01*
X942975Y280035D01*
X940435Y282575D01*
X937895D01*
Y280035D01*
X940435Y277495D01*
X937895Y274955D01*
Y272415D01*
X937525Y197275D02*
Y207435D01*
X947685D01*
Y197275D01*
X937525D01*
X939557Y199307D02*
Y205403D01*
X945653D01*
Y199307D01*
X939557D01*
X936625Y176955D02*
Y187115D01*
X946785D01*
Y176955D01*
X936625D01*
X938657Y178987D02*
Y185083D01*
X944753D01*
Y178987D01*
X938657D01*
X981075Y173355D02*
Y183515D01*
X991235D01*
Y173355D01*
X981075D01*
X983107Y175387D02*
Y181483D01*
X989203D01*
Y175387D01*
X983107D01*
X771525Y382905D02*
Y393065D01*
X781685D01*
Y382905D01*
X771525D01*
X773557Y384937D02*
Y391033D01*
X779653D01*
Y384937D01*
X773557D01*
X907415Y260985D02*
Y271145D01*
X917575D01*
Y260985D01*
X907415D01*
X909447Y263017D02*
Y269113D01*
X915543D01*
Y263017D01*
X909447D01*
X851535Y231775D02*
Y241935D01*
X861695D01*
Y231775D01*
X851535D01*
X853567Y233807D02*
Y239903D01*
X859663D01*
Y233807D01*
X853567D01*
X486612Y228398D02*
Y238558D01*
X496772D01*
Y228398D01*
X486612D01*
X488644Y230430D02*
Y236526D01*
X494740D01*
Y230430D01*
X488644D01*
X809625Y244475D02*
X812165D01*
X814705Y247015D01*
X817245Y244475D01*
X819785D01*
Y247015D01*
X817245Y249555D01*
X819785Y252095D01*
Y254635D01*
X817245D01*
X814705Y252095D01*
X812165Y254635D01*
X809625D01*
Y252095D01*
X812165Y249555D01*
X809625Y247015D01*
Y244475D01*
X301625D02*
X304165D01*
X306705Y247015D01*
X309245Y244475D01*
X311785D01*
Y247015D01*
X309245Y249555D01*
X311785Y252095D01*
Y254635D01*
X309245D01*
X306705Y252095D01*
X304165Y254635D01*
X301625D01*
Y252095D01*
X304165Y249555D01*
X301625Y247015D01*
Y244475D01*
X150135Y367305D02*
Y377465D01*
X160295D01*
Y367305D01*
X150135D01*
X152167Y369337D02*
Y375433D01*
X158263D01*
Y369337D01*
X152167D01*
X873125Y55245D02*
X875665D01*
X878205Y57785D01*
X880745Y55245D01*
X883285D01*
Y57785D01*
X880745Y60325D01*
X883285Y62865D01*
Y65405D01*
X880745D01*
X878205Y62865D01*
X875665Y65405D01*
X873125D01*
Y62865D01*
X875665Y60325D01*
X873125Y57785D01*
Y55245D01*
X354965Y224155D02*
X357505D01*
X360045Y226695D01*
X362585Y224155D01*
X365125D01*
Y226695D01*
X362585Y229235D01*
X365125Y231775D01*
Y234315D01*
X362585D01*
X360045Y231775D01*
X357505Y234315D01*
X354965D01*
Y231775D01*
X357505Y229235D01*
X354965Y226695D01*
Y224155D01*
X335915Y260985D02*
X338455D01*
X340995Y263525D01*
X343535Y260985D01*
X346075D01*
Y263525D01*
X343535Y266065D01*
X346075Y268605D01*
Y271145D01*
X343535D01*
X340995Y268605D01*
X338455Y271145D01*
X335915D01*
Y268605D01*
X338455Y266065D01*
X335915Y263525D01*
Y260985D01*
X123825Y262255D02*
X126365D01*
X128905Y264795D01*
X131445Y262255D01*
X133985D01*
Y264795D01*
X131445Y267335D01*
X133985Y269875D01*
Y272415D01*
X131445D01*
X128905Y269875D01*
X126365Y272415D01*
X123825D01*
Y269875D01*
X126365Y267335D01*
X123825Y264795D01*
Y262255D01*
X247845Y134425D02*
Y144585D01*
X258005D01*
Y134425D01*
X247845D01*
X249877Y136457D02*
Y142553D01*
X255973D01*
Y136457D01*
X249877D01*
X147955Y295275D02*
X150495D01*
X153035Y297815D01*
X155575Y295275D01*
X158115D01*
Y297815D01*
X155575Y300355D01*
X158115Y302895D01*
Y305435D01*
X155575D01*
X153035Y302895D01*
X150495Y305435D01*
X147955D01*
Y302895D01*
X150495Y300355D01*
X147955Y297815D01*
Y295275D01*
X135255Y139065D02*
Y149225D01*
X145415D01*
Y139065D01*
X135255D01*
X137287Y141097D02*
Y147193D01*
X143383D01*
Y141097D01*
X137287D01*
X114935Y139065D02*
Y149225D01*
X125095D01*
Y139065D01*
X114935D01*
X116967Y141097D02*
Y147193D01*
X123063D01*
Y141097D01*
X116967D01*
X174625Y27305D02*
Y37465D01*
X184785D01*
Y27305D01*
X174625D01*
X176657Y29337D02*
Y35433D01*
X182753D01*
Y29337D01*
X176657D01*
X101451Y112395D02*
Y122555D01*
X111611D01*
Y112395D01*
X101451D01*
X103483Y114427D02*
Y120523D01*
X109579D01*
Y114427D01*
X103483D01*
X102235Y128905D02*
Y139065D01*
X112395D01*
Y128905D01*
X102235D01*
X104267Y130937D02*
Y137033D01*
X110363D01*
Y130937D01*
X104267D01*
X57785Y128905D02*
Y139065D01*
X67945D01*
Y128905D01*
X57785D01*
X59817Y130937D02*
Y137033D01*
X65913D01*
Y130937D01*
X59817D01*
X79375Y128905D02*
Y139065D01*
X89535D01*
Y128905D01*
X79375D01*
X81407Y130937D02*
Y137033D01*
X87503D01*
Y130937D01*
X81407D01*
X254635Y40005D02*
Y37465D01*
X259715D01*
Y40005D01*
X262255D01*
Y45085D01*
X259715D01*
Y47625D01*
X254635D01*
Y45085D01*
X252095D01*
Y40005D01*
X254635D01*
X232815Y64365D02*
Y61825D01*
X237895D01*
Y64365D01*
X240435D01*
Y69445D01*
X237895D01*
Y71985D01*
X232815D01*
Y69445D01*
X230275D01*
Y64365D01*
X232815D01*
D106*
X898525Y349885D02*
X897943Y352246D01*
X896331Y354066D01*
X894057Y354928D01*
X891644Y354635D01*
X889643Y353254D01*
X888513Y351101D01*
Y348669D01*
X889643Y346516D01*
X891644Y345135D01*
X894057Y344842D01*
X896331Y345704D01*
X897943Y347524D01*
X898525Y349885D01*
X949325D02*
X948743Y352246D01*
X947131Y354066D01*
X944857Y354928D01*
X942444Y354635D01*
X940443Y353254D01*
X939313Y351101D01*
Y348669D01*
X940443Y346516D01*
X942444Y345135D01*
X944857Y344842D01*
X947131Y345704D01*
X948743Y347524D01*
X949325Y349885D01*
X1367155Y337185D02*
X1366573Y339546D01*
X1364961Y341366D01*
X1362687Y342228D01*
X1360274Y341935D01*
X1358273Y340554D01*
X1357143Y338401D01*
Y335969D01*
X1358273Y333816D01*
X1360274Y332435D01*
X1362687Y332142D01*
X1364961Y333004D01*
X1366573Y334824D01*
X1367155Y337185D01*
X1316355D02*
X1315773Y339546D01*
X1314161Y341366D01*
X1311887Y342228D01*
X1309474Y341935D01*
X1307473Y340554D01*
X1306343Y338401D01*
Y335969D01*
X1307473Y333816D01*
X1309474Y332435D01*
X1311887Y332142D01*
X1314161Y333004D01*
X1315773Y334824D01*
X1316355Y337185D01*
X1249045Y335915D02*
X1248463Y338276D01*
X1246851Y340096D01*
X1244577Y340958D01*
X1242164Y340665D01*
X1240163Y339284D01*
X1239033Y337131D01*
Y334699D01*
X1240163Y332546D01*
X1242164Y331165D01*
X1244577Y330872D01*
X1246851Y331734D01*
X1248463Y333554D01*
X1249045Y335915D01*
X1198245D02*
X1197663Y338276D01*
X1196051Y340096D01*
X1193777Y340958D01*
X1191364Y340665D01*
X1189363Y339284D01*
X1188233Y337131D01*
Y334699D01*
X1189363Y332546D01*
X1191364Y331165D01*
X1193777Y330872D01*
X1196051Y331734D01*
X1197663Y333554D01*
X1198245Y335915D01*
M02*
