G04*
G04 #@! TF.GenerationSoftware,Altium Limited,Altium Designer,23.9.2 (47)*
G04*
G04 Layer_Color=128*
%FSLAX44Y44*%
%MOMM*%
G71*
G04*
G04 #@! TF.SameCoordinates,96740390-7EB4-44B9-9E62-99E587B0A754*
G04*
G04*
G04 #@! TF.FilePolarity,Positive*
G04*
G01*
G75*
%ADD15C,0.1270*%
D15*
X369515Y365125D02*
X378515D01*
X374015Y360625D02*
Y369625D01*
X394915Y365125D02*
X403915D01*
X399415Y360625D02*
Y369625D01*
X420315Y365125D02*
X429315D01*
X424815Y360625D02*
Y369625D01*
X445715Y365125D02*
X454715D01*
X450215Y360625D02*
Y369625D01*
X471115Y365125D02*
X480115D01*
X475615Y360625D02*
Y369625D01*
X496515Y365125D02*
X505515D01*
X501015Y360625D02*
Y369625D01*
X521915Y365125D02*
X530915D01*
X526415Y360625D02*
Y369625D01*
X547315Y365125D02*
X556315D01*
X551815Y360625D02*
Y369625D01*
X572715Y365125D02*
X581715D01*
X577215Y360625D02*
Y369625D01*
X598115Y365125D02*
X607115D01*
X602615Y360625D02*
Y369625D01*
X623515Y365125D02*
X632515D01*
X628015Y360625D02*
Y369625D01*
X648915Y365125D02*
X657915D01*
X653415Y360625D02*
Y369625D01*
X674315Y365125D02*
X683315D01*
X678815Y360625D02*
Y369625D01*
X699715Y365125D02*
X708715D01*
X704215Y360625D02*
Y369625D01*
X725115Y365125D02*
X734115D01*
X729615Y360625D02*
Y369625D01*
X750515Y365125D02*
X759515D01*
X755015Y360625D02*
Y369625D01*
X775915Y365125D02*
X784915D01*
X780415Y360625D02*
Y369625D01*
X801315Y365125D02*
X810315D01*
X805815Y360625D02*
Y369625D01*
X826715Y365125D02*
X835715D01*
X831215Y360625D02*
Y369625D01*
X887095Y349885D02*
X899795D01*
X893445Y343535D02*
Y356235D01*
X937895Y349885D02*
X950595D01*
X944245Y343535D02*
Y356235D01*
X1037195Y362585D02*
X1044335D01*
X1040765Y359015D02*
Y366155D01*
X1062595Y337185D02*
X1069735D01*
X1066165Y333615D02*
Y340755D01*
X1037195Y311785D02*
X1044335D01*
X1040765Y308215D02*
Y315355D01*
X1355725Y337185D02*
X1368425D01*
X1362075Y330835D02*
Y343535D01*
X1304925Y337185D02*
X1317625D01*
X1311275Y330835D02*
Y343535D01*
X379675Y26035D02*
X388675D01*
X384175Y21535D02*
Y30535D01*
X405075Y26035D02*
X414075D01*
X409575Y21535D02*
Y30535D01*
X430475Y26035D02*
X439475D01*
X434975Y21535D02*
Y30535D01*
X455875Y26035D02*
X464875D01*
X460375Y21535D02*
Y30535D01*
X481275Y26035D02*
X490275D01*
X485775Y21535D02*
Y30535D01*
X506675Y26035D02*
X515675D01*
X511175Y21535D02*
Y30535D01*
X532075Y26035D02*
X541075D01*
X536575Y21535D02*
Y30535D01*
X557475Y26035D02*
X566475D01*
X561975Y21535D02*
Y30535D01*
X582875Y26035D02*
X591875D01*
X587375Y21535D02*
Y30535D01*
X608275Y26035D02*
X617275D01*
X612775Y21535D02*
Y30535D01*
X633675Y26035D02*
X642675D01*
X638175Y21535D02*
Y30535D01*
X659075Y26035D02*
X668075D01*
X663575Y21535D02*
Y30535D01*
X684475Y26035D02*
X693475D01*
X688975Y21535D02*
Y30535D01*
X709875Y26035D02*
X718875D01*
X714375Y21535D02*
Y30535D01*
X735275Y26035D02*
X744275D01*
X739775Y21535D02*
Y30535D01*
X760675Y26035D02*
X769675D01*
X765175Y21535D02*
Y30535D01*
X786075Y26035D02*
X795075D01*
X790575Y21535D02*
Y30535D01*
X811475Y26035D02*
X820475D01*
X815975Y21535D02*
Y30535D01*
X836875Y26035D02*
X845875D01*
X841375Y21535D02*
Y30535D01*
X1229705Y197795D02*
X1242905D01*
X1236305Y191195D02*
Y204395D01*
X1209855Y137795D02*
X1222755D01*
X1216305Y131345D02*
Y144245D01*
X1229705Y77795D02*
X1242905D01*
X1236305Y71195D02*
Y84395D01*
X1351705Y77795D02*
X1364905D01*
X1358305Y71195D02*
Y84395D01*
X1351705Y197795D02*
X1364905D01*
X1358305Y191195D02*
Y204395D01*
X1237615Y335915D02*
X1250315D01*
X1243965Y329565D02*
Y342265D01*
X1186815Y335915D02*
X1199515D01*
X1193165Y329565D02*
Y342265D01*
X853440Y262255D02*
X859790D01*
X856615Y259080D02*
Y265430D01*
X196850Y89535D02*
X203200D01*
X200025Y86360D02*
Y92710D01*
X208280Y100965D02*
X214630D01*
X211455Y97790D02*
Y104140D01*
X187960Y131445D02*
X194310D01*
X191135Y128270D02*
Y134620D01*
X178773Y117373D02*
X185123D01*
X181948Y114198D02*
Y120548D01*
X222250Y111125D02*
X228600D01*
X225425Y107950D02*
Y114300D01*
X263806Y151019D02*
X270156D01*
X266982Y147844D02*
Y154194D01*
X937260Y277495D02*
X948690D01*
X942975Y271780D02*
Y283210D01*
X939430Y202355D02*
X945780D01*
X942605Y199180D02*
Y205530D01*
X938530Y182035D02*
X944880D01*
X941705Y178860D02*
Y185210D01*
X982980Y178435D02*
X989330D01*
X986155Y175260D02*
Y181610D01*
X773430Y387985D02*
X779780D01*
X776605Y384810D02*
Y391160D01*
X909320Y266065D02*
X915670D01*
X912495Y262890D02*
Y269240D01*
X853440Y236855D02*
X859790D01*
X856615Y233680D02*
Y240030D01*
X488517Y233478D02*
X494867D01*
X491692Y230303D02*
Y236653D01*
X808990Y249555D02*
X820420D01*
X814705Y243840D02*
Y255270D01*
X300990Y249555D02*
X312420D01*
X306705Y243840D02*
Y255270D01*
X152040Y372385D02*
X158390D01*
X155215Y369210D02*
Y375560D01*
X872490Y60325D02*
X883920D01*
X878205Y54610D02*
Y66040D01*
X354330Y229235D02*
X365760D01*
X360045Y223520D02*
Y234950D01*
X335280Y266065D02*
X346710D01*
X340995Y260350D02*
Y271780D01*
X123190Y267335D02*
X134620D01*
X128905Y261620D02*
Y273050D01*
X249750Y139505D02*
X256100D01*
X252925Y136330D02*
Y142680D01*
X147320Y300355D02*
X158750D01*
X153035Y294640D02*
Y306070D01*
X137160Y144145D02*
X143510D01*
X140335Y140970D02*
Y147320D01*
X116840Y144145D02*
X123190D01*
X120015Y140970D02*
Y147320D01*
X176530Y32385D02*
X182880D01*
X179705Y29210D02*
Y35560D01*
X103356Y117475D02*
X109706D01*
X106531Y114300D02*
Y120650D01*
X104140Y133985D02*
X110490D01*
X107315Y130810D02*
Y137160D01*
X59690Y133985D02*
X66040D01*
X62865Y130810D02*
Y137160D01*
X81280Y133985D02*
X87630D01*
X84455Y130810D02*
Y137160D01*
X255270Y42545D02*
X259080D01*
X257175Y40640D02*
Y44450D01*
X233450Y66905D02*
X237260D01*
X235355Y65000D02*
Y68810D01*
M02*
