G04*
G04 #@! TF.GenerationSoftware,Altium Limited,Altium Designer,23.9.2 (47)*
G04*
G04 Layer_Color=16711935*
%FSLAX44Y44*%
%MOMM*%
G71*
G04*
G04 #@! TF.SameCoordinates,96740390-7EB4-44B9-9E62-99E587B0A754*
G04*
G04*
G04 #@! TF.FilePolarity,Positive*
G04*
G01*
G75*
%ADD98C,0.0100*%
D98*
X8275Y232155D02*
X9154Y230034D01*
X11275Y229155D01*
X11475Y165955D02*
X9354Y165076D01*
X8475Y162955D01*
X23475D02*
X22596Y165076D01*
X20475Y165955D01*
X8475Y160755D02*
X9354Y158634D01*
X11475Y157755D01*
X23275Y234355D02*
X22396Y236476D01*
X20275Y237355D01*
Y229155D02*
X22396Y230034D01*
X23275Y232155D01*
X11275Y237355D02*
X9154Y236476D01*
X8275Y234355D01*
X20475Y157755D02*
X22596Y158634D01*
X23475Y160755D01*
X46375Y170055D02*
X48673Y171007D01*
X49625Y173305D01*
X48673Y175603D01*
X46375Y176555D01*
X44375Y225055D02*
X42077Y224103D01*
X41125Y221805D01*
X42077Y219507D01*
X44375Y218555D01*
Y176555D02*
X42077Y175603D01*
X41125Y173305D01*
X42077Y171007D01*
X44375Y170055D01*
X46375Y218555D02*
X48673Y219507D01*
X49625Y221805D01*
X48673Y224103D01*
X46375Y225055D01*
X11275Y229155D02*
X20275D01*
X11275Y237355D02*
X20275D01*
X23275Y232105D02*
Y234405D01*
X8275Y232105D02*
Y234405D01*
X23475Y160705D02*
Y163005D01*
X8475Y160705D02*
Y163005D01*
X11475Y157755D02*
X20475D01*
X11475Y165955D02*
X20475D01*
X44375Y170055D02*
X46375D01*
X44375Y225055D02*
X46375D01*
X44375Y176555D02*
X46375D01*
X44375Y218555D02*
X46375D01*
M02*
