G04*
G04 #@! TF.GenerationSoftware,Altium Limited,Altium Designer,23.9.2 (47)*
G04*
G04 Layer_Color=8388736*
%FSLAX44Y44*%
%MOMM*%
G71*
G04*
G04 #@! TF.SameCoordinates,96740390-7EB4-44B9-9E62-99E587B0A754*
G04*
G04*
G04 #@! TF.FilePolarity,Negative*
G04*
G01*
G75*
%ADD47R,0.6832X0.6032*%
%ADD48R,1.4032X1.4032*%
%ADD49R,0.7532X0.8032*%
%ADD50R,0.8032X0.7532*%
%ADD51R,1.1532X1.1532*%
%ADD52R,3.4532X3.4532*%
G04:AMPARAMS|DCode=53|XSize=1.2132mm|YSize=0.4732mm|CornerRadius=0.1691mm|HoleSize=0mm|Usage=FLASHONLY|Rotation=270.000|XOffset=0mm|YOffset=0mm|HoleType=Round|Shape=RoundedRectangle|*
%AMROUNDEDRECTD53*
21,1,1.2132,0.1350,0,0,270.0*
21,1,0.8750,0.4732,0,0,270.0*
1,1,0.3382,-0.0675,-0.4375*
1,1,0.3382,-0.0675,0.4375*
1,1,0.3382,0.0675,0.4375*
1,1,0.3382,0.0675,-0.4375*
%
%ADD53ROUNDEDRECTD53*%
G04:AMPARAMS|DCode=54|XSize=1.2132mm|YSize=0.4732mm|CornerRadius=0.1691mm|HoleSize=0mm|Usage=FLASHONLY|Rotation=180.000|XOffset=0mm|YOffset=0mm|HoleType=Round|Shape=RoundedRectangle|*
%AMROUNDEDRECTD54*
21,1,1.2132,0.1350,0,0,180.0*
21,1,0.8750,0.4732,0,0,180.0*
1,1,0.3382,-0.4375,0.0675*
1,1,0.3382,0.4375,0.0675*
1,1,0.3382,0.4375,-0.0675*
1,1,0.3382,-0.4375,-0.0675*
%
%ADD54ROUNDEDRECTD54*%
G04:AMPARAMS|DCode=55|XSize=2.1732mm|YSize=0.8032mm|CornerRadius=0.1766mm|HoleSize=0mm|Usage=FLASHONLY|Rotation=0.000|XOffset=0mm|YOffset=0mm|HoleType=Round|Shape=RoundedRectangle|*
%AMROUNDEDRECTD55*
21,1,2.1732,0.4500,0,0,0.0*
21,1,1.8200,0.8032,0,0,0.0*
1,1,0.3532,0.9100,-0.2250*
1,1,0.3532,-0.9100,-0.2250*
1,1,0.3532,-0.9100,0.2250*
1,1,0.3532,0.9100,0.2250*
%
%ADD55ROUNDEDRECTD55*%
%ADD56R,1.5032X1.3532*%
%ADD57R,1.2032X0.8032*%
%ADD58R,1.5532X0.6032*%
G04:AMPARAMS|DCode=59|XSize=2.3032mm|YSize=2.1032mm|CornerRadius=0.4816mm|HoleSize=0mm|Usage=FLASHONLY|Rotation=270.000|XOffset=0mm|YOffset=0mm|HoleType=Round|Shape=RoundedRectangle|*
%AMROUNDEDRECTD59*
21,1,2.3032,1.1400,0,0,270.0*
21,1,1.3400,2.1032,0,0,270.0*
1,1,0.9632,-0.5700,-0.6700*
1,1,0.9632,-0.5700,0.6700*
1,1,0.9632,0.5700,0.6700*
1,1,0.9632,0.5700,-0.6700*
%
%ADD59ROUNDEDRECTD59*%
%ADD60R,2.1032X2.0032*%
G04:AMPARAMS|DCode=61|XSize=1.2532mm|YSize=1.4532mm|CornerRadius=0.6266mm|HoleSize=0mm|Usage=FLASHONLY|Rotation=90.000|XOffset=0mm|YOffset=0mm|HoleType=Round|Shape=RoundedRectangle|*
%AMROUNDEDRECTD61*
21,1,1.2532,0.2000,0,0,90.0*
21,1,0.0000,1.4532,0,0,90.0*
1,1,1.2532,0.1000,0.0000*
1,1,1.2532,0.1000,0.0000*
1,1,1.2532,-0.1000,0.0000*
1,1,1.2532,-0.1000,0.0000*
%
%ADD61ROUNDEDRECTD61*%
%ADD62R,2.3032X1.6032*%
%ADD63R,3.4532X1.5532*%
%ADD64R,1.1032X1.5532*%
%ADD65R,1.5032X1.5032*%
%ADD66R,1.5032X1.5032*%
%ADD67R,1.1032X2.2032*%
%ADD68R,2.2032X1.1032*%
%ADD69R,1.1532X1.1532*%
G04:AMPARAMS|DCode=70|XSize=2.1032mm|YSize=0.8032mm|CornerRadius=0.2516mm|HoleSize=0mm|Usage=FLASHONLY|Rotation=0.000|XOffset=0mm|YOffset=0mm|HoleType=Round|Shape=RoundedRectangle|*
%AMROUNDEDRECTD70*
21,1,2.1032,0.3000,0,0,0.0*
21,1,1.6000,0.8032,0,0,0.0*
1,1,0.5032,0.8000,-0.1500*
1,1,0.5032,-0.8000,-0.1500*
1,1,0.5032,-0.8000,0.1500*
1,1,0.5032,0.8000,0.1500*
%
%ADD70ROUNDEDRECTD70*%
%ADD71O,2.4532X1.8032*%
G04:AMPARAMS|DCode=72|XSize=2.4032mm|YSize=1.7032mm|CornerRadius=0.2891mm|HoleSize=0mm|Usage=FLASHONLY|Rotation=0.000|XOffset=0mm|YOffset=0mm|HoleType=Round|Shape=RoundedRectangle|*
%AMROUNDEDRECTD72*
21,1,2.4032,1.1250,0,0,0.0*
21,1,1.8250,1.7032,0,0,0.0*
1,1,0.5782,0.9125,-0.5625*
1,1,0.5782,-0.9125,-0.5625*
1,1,0.5782,-0.9125,0.5625*
1,1,0.5782,0.9125,0.5625*
%
%ADD72ROUNDEDRECTD72*%
G04:AMPARAMS|DCode=73|XSize=0.8032mm|YSize=1.2032mm|CornerRadius=0.1766mm|HoleSize=0mm|Usage=FLASHONLY|Rotation=270.000|XOffset=0mm|YOffset=0mm|HoleType=Round|Shape=RoundedRectangle|*
%AMROUNDEDRECTD73*
21,1,0.8032,0.8500,0,0,270.0*
21,1,0.4500,1.2032,0,0,270.0*
1,1,0.3532,-0.4250,-0.2250*
1,1,0.3532,-0.4250,0.2250*
1,1,0.3532,0.4250,0.2250*
1,1,0.3532,0.4250,-0.2250*
%
%ADD73ROUNDEDRECTD73*%
%ADD74R,1.4032X1.4032*%
%ADD75C,1.7032*%
%ADD76R,1.7032X1.7032*%
%ADD77C,2.9972*%
%ADD78R,1.4252X1.4252*%
%ADD79C,1.4252*%
%ADD80R,2.1832X2.1832*%
%ADD81C,2.1382*%
%ADD82C,2.1832*%
D47*
X81665Y189865D02*
D03*
X94865D02*
D03*
Y111125D02*
D03*
X81665D02*
D03*
X94865Y150495D02*
D03*
X81665D02*
D03*
D48*
X250825Y338201D02*
D03*
Y359201D02*
D03*
D49*
X225425Y336745D02*
D03*
Y345245D02*
D03*
X201295Y66235D02*
D03*
Y74735D02*
D03*
X191135Y66235D02*
D03*
Y74735D02*
D03*
X273685Y131005D02*
D03*
Y139505D02*
D03*
X264795Y131005D02*
D03*
Y139505D02*
D03*
D50*
X281745Y179705D02*
D03*
X273245D02*
D03*
X220785Y79375D02*
D03*
X212285D02*
D03*
Y60325D02*
D03*
X220785D02*
D03*
X235145Y43815D02*
D03*
X243645D02*
D03*
X159825Y15875D02*
D03*
X151325D02*
D03*
X273245Y160655D02*
D03*
X281745D02*
D03*
X1106805Y99695D02*
D03*
X1115305D02*
D03*
X923485Y252095D02*
D03*
X931985D02*
D03*
X857005Y225425D02*
D03*
X865505D02*
D03*
X931985Y234315D02*
D03*
X923485D02*
D03*
X857005Y179705D02*
D03*
X865505D02*
D03*
X857005Y203835D02*
D03*
X865505D02*
D03*
X931985Y217805D02*
D03*
X923485D02*
D03*
X931985Y200025D02*
D03*
X923485D02*
D03*
X1050095Y177165D02*
D03*
X1041595D02*
D03*
X151765Y327025D02*
D03*
X160265D02*
D03*
D51*
X219975Y43815D02*
D03*
X205475D02*
D03*
X928635Y23495D02*
D03*
X914135D02*
D03*
X858755Y160655D02*
D03*
X873255D02*
D03*
D52*
X272415Y90505D02*
D03*
D53*
X257415Y114105D02*
D03*
X262415D02*
D03*
X267415D02*
D03*
X272415D02*
D03*
X277415D02*
D03*
X282415D02*
D03*
X287415D02*
D03*
Y66905D02*
D03*
X282415D02*
D03*
X277415D02*
D03*
X272415D02*
D03*
X267415D02*
D03*
X262415D02*
D03*
X257415D02*
D03*
D54*
X296015Y105505D02*
D03*
Y100505D02*
D03*
Y95505D02*
D03*
Y90505D02*
D03*
Y85505D02*
D03*
Y80505D02*
D03*
Y75505D02*
D03*
X248815D02*
D03*
Y80505D02*
D03*
Y85505D02*
D03*
Y90505D02*
D03*
Y95505D02*
D03*
Y100505D02*
D03*
Y105505D02*
D03*
D55*
X1007045Y252095D02*
D03*
Y239395D02*
D03*
Y226695D02*
D03*
Y213995D02*
D03*
X957645D02*
D03*
Y226695D02*
D03*
Y239395D02*
D03*
Y252095D02*
D03*
D56*
X1176655Y94615D02*
D03*
X1146655D02*
D03*
D57*
X301055Y180315D02*
D03*
Y161315D02*
D03*
X325055Y170815D02*
D03*
X228665D02*
D03*
X252665Y180315D02*
D03*
Y161315D02*
D03*
D58*
X42625Y204055D02*
D03*
Y210555D02*
D03*
Y184555D02*
D03*
Y191055D02*
D03*
Y197555D02*
D03*
D59*
X15875Y161055D02*
D03*
Y234055D02*
D03*
D60*
Y209055D02*
D03*
Y186055D02*
D03*
D61*
X45375Y221805D02*
D03*
Y173305D02*
D03*
D62*
X23715Y372385D02*
D03*
X114715D02*
D03*
Y327385D02*
D03*
X23715D02*
D03*
X116205Y62865D02*
D03*
X25205D02*
D03*
Y17865D02*
D03*
X116205D02*
D03*
D63*
X257175Y243995D02*
D03*
D64*
X234275Y310995D02*
D03*
X257175D02*
D03*
X280075D02*
D03*
D65*
X653443Y180975D02*
D03*
X635014Y180678D02*
D03*
Y199028D02*
D03*
Y217378D02*
D03*
X616585Y180975D02*
D03*
D66*
X653443Y199325D02*
D03*
X653364Y217378D02*
D03*
X616664D02*
D03*
X616585Y199325D02*
D03*
D67*
X710014Y274028D02*
D03*
D03*
X697314D02*
D03*
X684614D02*
D03*
X671914D02*
D03*
X659214D02*
D03*
X646514D02*
D03*
X633814D02*
D03*
X621114D02*
D03*
X608414D02*
D03*
X595714D02*
D03*
X583014D02*
D03*
X570314D02*
D03*
X557614D02*
D03*
X544914D02*
D03*
Y104028D02*
D03*
D03*
X557614D02*
D03*
X570314D02*
D03*
X583014D02*
D03*
X595714D02*
D03*
X608414D02*
D03*
X621114D02*
D03*
X633814D02*
D03*
X646514D02*
D03*
X659214D02*
D03*
X671914D02*
D03*
X684614D02*
D03*
X697314D02*
D03*
X710014D02*
D03*
D68*
X534914Y246178D02*
D03*
D03*
Y233478D02*
D03*
Y220778D02*
D03*
Y208078D02*
D03*
Y195378D02*
D03*
Y182678D02*
D03*
Y169978D02*
D03*
Y157278D02*
D03*
Y144578D02*
D03*
Y131878D02*
D03*
D69*
X302895Y353325D02*
D03*
Y338825D02*
D03*
X272415Y337925D02*
D03*
Y352425D02*
D03*
D70*
X956525Y60325D02*
D03*
Y47625D02*
D03*
Y34925D02*
D03*
Y22225D02*
D03*
X1005625D02*
D03*
Y34925D02*
D03*
Y47625D02*
D03*
Y60325D02*
D03*
D71*
X1089705Y170815D02*
D03*
Y145415D02*
D03*
X1174705D02*
D03*
Y170815D02*
D03*
D72*
X121965Y236855D02*
D03*
X79965D02*
D03*
D73*
X1106735Y59665D02*
D03*
Y40665D02*
D03*
X1129735Y50165D02*
D03*
D74*
X1051351Y147955D02*
D03*
X1030351D02*
D03*
D75*
X374015Y365125D02*
D03*
X399415D02*
D03*
X424815D02*
D03*
X450215D02*
D03*
X475615D02*
D03*
X501015D02*
D03*
X526415D02*
D03*
X551815D02*
D03*
X577215D02*
D03*
X602615D02*
D03*
X628015D02*
D03*
X653415D02*
D03*
X678815D02*
D03*
X704215D02*
D03*
X729615D02*
D03*
X755015D02*
D03*
X780415D02*
D03*
X805815D02*
D03*
X384175Y26035D02*
D03*
X409575D02*
D03*
X434975D02*
D03*
X460375D02*
D03*
X485775D02*
D03*
X511175D02*
D03*
X536575D02*
D03*
X561975D02*
D03*
X587375D02*
D03*
X612775D02*
D03*
X638175D02*
D03*
X663575D02*
D03*
X688975D02*
D03*
X714375D02*
D03*
X739775D02*
D03*
X765175D02*
D03*
X790575D02*
D03*
X815975D02*
D03*
D76*
X831215Y365125D02*
D03*
X841375Y26035D02*
D03*
D77*
X893445Y349885D02*
D03*
X944245D02*
D03*
X1362075Y337185D02*
D03*
X1311275D02*
D03*
X1243965Y335915D02*
D03*
X1193165D02*
D03*
D78*
X1040765Y362585D02*
D03*
D79*
X1066165Y337185D02*
D03*
X1040765Y311785D02*
D03*
D80*
X1236305Y197795D02*
D03*
D81*
X1216305Y137795D02*
D03*
D82*
X1236305Y77795D02*
D03*
X1358305D02*
D03*
Y197795D02*
D03*
M02*
