G04*
G04 #@! TF.GenerationSoftware,Altium Limited,Altium Designer,23.9.2 (47)*
G04*
G04 Layer_Color=16711935*
%FSLAX44Y44*%
%MOMM*%
G71*
G04*
G04 #@! TF.SameCoordinates,96740390-7EB4-44B9-9E62-99E587B0A754*
G04*
G04*
G04 #@! TF.FilePolarity,Positive*
G04*
G01*
G75*
%ADD10C,0.2000*%
%ADD15C,0.1270*%
%ADD100C,0.0500*%
%ADD101C,0.1000*%
D10*
X104265Y189865D02*
X102265D01*
X104265D01*
X238915Y106005D02*
X236915D01*
X238915D01*
X942945Y256095D02*
X940945D01*
X942945D01*
X132715Y326885D02*
X130715D01*
X132715D01*
X104265Y111125D02*
X102265D01*
X104265D01*
Y150495D02*
X102265D01*
X104265D01*
X938175Y60275D02*
X936175D01*
X938175D01*
X9205Y63365D02*
X7205D01*
X9205D01*
D15*
X94265Y185865D02*
Y193865D01*
X82265D02*
X94265D01*
X82265Y185865D02*
Y193865D01*
Y185865D02*
X94265D01*
X247415Y65505D02*
Y115505D01*
Y65505D02*
X297415D01*
Y115505D01*
X247415D02*
X297415D01*
X1005465Y370185D02*
X1075465D01*
X1005465Y304185D02*
Y370185D01*
Y304185D02*
X1075465D01*
Y370185D01*
X1001845Y208520D02*
Y257570D01*
X962845Y208520D02*
Y257570D01*
Y208520D02*
X1001845D01*
X962845Y257570D02*
X1001845D01*
X39215Y379885D02*
X99215D01*
Y319885D02*
Y379885D01*
X39215Y319885D02*
X99215D01*
X39215D02*
Y379885D01*
X82265Y107125D02*
X94265D01*
X82265D02*
Y115125D01*
X94265D01*
Y107125D02*
Y115125D01*
X82265Y146495D02*
X94265D01*
X82265D02*
Y154495D01*
X94265D01*
Y146495D02*
Y154495D01*
X961575Y16775D02*
Y65775D01*
Y16775D02*
X1000575D01*
Y65775D01*
X961575D02*
X1000575D01*
X1201805Y60295D02*
Y215295D01*
X1392805D01*
Y60295D02*
Y215295D01*
X1201805Y60295D02*
X1392805D01*
X100705Y10365D02*
Y70365D01*
X40705D02*
X100705D01*
X40705Y10365D02*
Y70365D01*
Y10365D02*
X100705D01*
D100*
X1117324Y60765D02*
X1115635Y62454D01*
X1113946Y60765D01*
X1115635Y59076D01*
X1117324Y60765D01*
X1104235Y57265D02*
Y62065D01*
Y38265D02*
Y43065D01*
X1132235Y47765D02*
Y52565D01*
X1130138Y47765D02*
Y52565D01*
X1106332Y38265D02*
Y43065D01*
Y57265D02*
Y62065D01*
X1107241Y38265D02*
Y43065D01*
X1129229Y47765D02*
Y52565D01*
X1107241Y57265D02*
Y62065D01*
X1107493Y57265D02*
Y62065D01*
X1124735Y52565D02*
X1132235D01*
X1126487Y47765D02*
Y52565D01*
X1124735Y47765D02*
X1132235D01*
X1128977D02*
Y52565D01*
X1104235Y43065D02*
X1111735D01*
X1107493Y38265D02*
Y43065D01*
X1104235Y38265D02*
X1111735Y38265D01*
X1109983Y38265D02*
Y43065D01*
X1104235Y57265D02*
X1111735D01*
X1104235Y62065D02*
X1111735Y62065D01*
X1109983Y57265D02*
Y62065D01*
X1111735Y35665D02*
X1124735D01*
X1111735D02*
Y64665D01*
Y35665D02*
X1112473Y36403D01*
X1123997D02*
X1124735Y35665D01*
Y64665D01*
X1111735D02*
X1112473Y63927D01*
X1123997D02*
X1124735Y64665D01*
X1111735D02*
X1124735D01*
X1112473Y36403D02*
X1123997D01*
Y63927D01*
X1112473D02*
X1123997D01*
X1112473Y36403D02*
Y63927D01*
D101*
X1147155Y85115D02*
X1176155D01*
X1147155Y104115D02*
X1176155D01*
Y85115D02*
Y104115D01*
X1147155Y85115D02*
Y104115D01*
X306055Y155815D02*
Y185815D01*
X320055Y155815D02*
Y185815D01*
X306055D02*
X320055D01*
X306055Y155815D02*
X320055D01*
X223625Y258945D02*
Y296045D01*
X290725Y258945D02*
Y296045D01*
X223625Y258945D02*
X290725D01*
X223625Y296045D02*
X290725D01*
X233665Y185815D02*
X247665D01*
X233665Y155815D02*
X247665D01*
X233665D02*
Y185815D01*
X247665Y155815D02*
Y185815D01*
M02*
