G04*
G04 #@! TF.GenerationSoftware,Altium Limited,Altium Designer,23.9.2 (47)*
G04*
G04 Layer_Color=255*
%FSLAX44Y44*%
%MOMM*%
G71*
G04*
G04 #@! TF.SameCoordinates,96740390-7EB4-44B9-9E62-99E587B0A754*
G04*
G04*
G04 #@! TF.FilePolarity,Positive*
G04*
G01*
G75*
%ADD87C,1.5000*%
%ADD88R,1.5000X1.5000*%
%ADD89C,2.7940*%
%ADD90R,1.2220X1.2220*%
%ADD91C,1.2220*%
%ADD92R,1.9800X1.9800*%
%ADD93C,1.9350*%
%ADD94C,1.9800*%
D87*
X374015Y365125D02*
D03*
X399415D02*
D03*
X424815D02*
D03*
X450215D02*
D03*
X475615D02*
D03*
X501015D02*
D03*
X526415D02*
D03*
X551815D02*
D03*
X577215D02*
D03*
X602615D02*
D03*
X628015D02*
D03*
X653415D02*
D03*
X678815D02*
D03*
X704215D02*
D03*
X729615D02*
D03*
X755015D02*
D03*
X780415D02*
D03*
X805815D02*
D03*
X384175Y26035D02*
D03*
X409575D02*
D03*
X434975D02*
D03*
X460375D02*
D03*
X485775D02*
D03*
X511175D02*
D03*
X536575D02*
D03*
X561975D02*
D03*
X587375D02*
D03*
X612775D02*
D03*
X638175D02*
D03*
X663575D02*
D03*
X688975D02*
D03*
X714375D02*
D03*
X739775D02*
D03*
X765175D02*
D03*
X790575D02*
D03*
X815975D02*
D03*
D88*
X831215Y365125D02*
D03*
X841375Y26035D02*
D03*
D89*
X893445Y349885D02*
D03*
X944245D02*
D03*
X1362075Y337185D02*
D03*
X1311275D02*
D03*
X1243965Y335915D02*
D03*
X1193165D02*
D03*
D90*
X1040765Y362585D02*
D03*
D91*
X1066165Y337185D02*
D03*
X1040765Y311785D02*
D03*
D92*
X1236305Y197795D02*
D03*
D93*
X1216305Y137795D02*
D03*
D94*
X1236305Y77795D02*
D03*
X1358305D02*
D03*
Y197795D02*
D03*
M02*
