G04*
G04 #@! TF.GenerationSoftware,Altium Limited,Altium Designer,23.9.2 (47)*
G04*
G04 Layer_Color=65535*
%FSLAX44Y44*%
%MOMM*%
G71*
G04*
G04 #@! TF.SameCoordinates,96740390-7EB4-44B9-9E62-99E587B0A754*
G04*
G04*
G04 #@! TF.FilePolarity,Positive*
G04*
G01*
G75*
%ADD10C,0.2000*%
%ADD11C,0.1778*%
%ADD12C,0.1000*%
%ADD13C,0.2500*%
%ADD14C,0.3000*%
%ADD15C,0.1270*%
%ADD16C,0.1524*%
%ADD17C,0.2540*%
%ADD18C,0.5000*%
%ADD19R,1.0000X0.5000*%
G36*
X918845Y328295D02*
X925195Y334645D01*
X921385D01*
Y340995D01*
X916305D01*
Y334645D01*
X912495D01*
X918845Y328295D01*
D02*
G37*
G36*
X1118205Y168122D02*
X1112191D01*
Y174115D01*
X1118205D01*
Y168122D01*
D02*
G37*
G36*
X1218565Y314325D02*
X1224915Y320675D01*
X1221105D01*
Y327025D01*
X1216025D01*
Y320675D01*
X1212215D01*
X1218565Y314325D01*
D02*
G37*
G36*
X1336675Y315595D02*
X1343025Y321945D01*
X1339215D01*
Y328295D01*
X1334135D01*
Y321945D01*
X1330325D01*
X1336675Y315595D01*
D02*
G37*
D10*
X104265Y189865D02*
X102265D01*
X104265D01*
X238915Y106005D02*
X236915D01*
X238915D01*
X1041765Y377825D02*
X1039765D01*
X1041765D01*
X942945Y256095D02*
X940945D01*
X942945D01*
X132715Y326885D02*
X130715D01*
X132715D01*
X104265Y111125D02*
X102265D01*
X104265D01*
Y150495D02*
X102265D01*
X104265D01*
X938175Y60275D02*
X936175D01*
X938175D01*
X1118811Y171115D02*
X1117967Y173433D01*
X1115831Y174666D01*
X1113402Y174237D01*
X1111817Y172348D01*
Y169882D01*
X1113402Y167992D01*
X1115831Y167564D01*
X1117967Y168797D01*
X1118811Y171115D01*
X1090619Y186115D02*
X1088498Y187340D01*
Y184890D01*
X1090619Y186115D01*
X9205Y63365D02*
X7205D01*
X9205D01*
X454448Y352425D02*
X456565D01*
X361315D02*
X824865D01*
X843915D01*
Y377825D01*
X361315D02*
X843915D01*
X361315Y352425D02*
Y377825D01*
X310055Y185815D02*
X320055D01*
Y177815D02*
Y185815D01*
X310055Y155815D02*
X320055D01*
Y163815D01*
X223675Y253495D02*
Y301495D01*
X290675Y253495D02*
Y301495D01*
X223675Y253495D02*
X290675D01*
X223675Y301495D02*
X290675D01*
X233665Y177815D02*
Y185815D01*
X243665D01*
X233665Y155815D02*
Y163815D01*
Y155815D02*
X243665D01*
X1103705Y181115D02*
X1160705D01*
Y135115D02*
Y181115D01*
X1103705Y135115D02*
X1160705D01*
X1103705D02*
Y181115D01*
X464608Y13335D02*
X466725D01*
X371475D02*
X835025D01*
X854075D01*
Y38735D01*
X371475D02*
X854075D01*
X371475Y13335D02*
Y38735D01*
D11*
X934382Y338143D02*
X936439Y336685D01*
X938708Y335585D01*
X941126Y334871D01*
X943628Y334562D01*
X946148Y334669D01*
X948615Y335186D01*
X950965Y336101D01*
X953133Y337388D01*
X955061Y339014D01*
X956696Y340933D01*
X957995Y343094D01*
X958921Y345439D01*
X959452Y347904D01*
X959570Y350423D01*
X959275Y352927D01*
X958574Y355349D01*
X957484Y357623D01*
X956038Y359688D01*
X954272Y361488D01*
X952235Y362974D01*
X949982Y364106D01*
X947574Y364854D01*
X945076Y365197D01*
X942555Y365127D01*
X940081Y364644D01*
X937719Y363762D01*
X935533Y362505D01*
X933583Y360906D01*
X931921Y359010D01*
X930592Y356867D01*
X929632Y354536D01*
X929068Y352078D01*
X928913Y349562D01*
X929174Y347053D01*
X929842Y344622D01*
X930899Y342333D01*
X932317Y340248D01*
X934057Y338424D01*
X894563Y311023D02*
X892937Y312649D01*
X891311Y311023D01*
X892937Y309397D01*
X894563Y311023D01*
X945871Y311277D02*
X944245Y312903D01*
X942619Y311277D01*
X944245Y309651D01*
X945871Y311277D01*
X883604Y338124D02*
X885664Y336671D01*
X887934Y335575D01*
X890352Y334865D01*
X892855Y334561D01*
X895373Y334672D01*
X897839Y335193D01*
X900187Y336111D01*
X902352Y337402D01*
X904277Y339030D01*
X905909Y340951D01*
X907204Y343113D01*
X908127Y345458D01*
X908654Y347924D01*
X908770Y350442D01*
X908472Y352944D01*
X907767Y355365D01*
X906676Y357637D01*
X905228Y359700D01*
X903461Y361497D01*
X901423Y362981D01*
X899170Y364111D01*
X896762Y364857D01*
X894264Y365198D01*
X891745Y365125D01*
X889271Y364641D01*
X886910Y363758D01*
X884726Y362500D01*
X882777Y360901D01*
X881116Y359005D01*
X879789Y356862D01*
X878831Y354530D01*
X878267Y352074D01*
X878114Y349558D01*
X878374Y347051D01*
X879042Y344620D01*
X880099Y342332D01*
X881517Y340247D01*
X883257Y338424D01*
X1301434Y325424D02*
X1303494Y323971D01*
X1305764Y322875D01*
X1308182Y322165D01*
X1310685Y321861D01*
X1313203Y321972D01*
X1315669Y322493D01*
X1318017Y323411D01*
X1320182Y324702D01*
X1322106Y326330D01*
X1323739Y328251D01*
X1325034Y330413D01*
X1325957Y332758D01*
X1326484Y335224D01*
X1326600Y337742D01*
X1326302Y340244D01*
X1325597Y342665D01*
X1324506Y344937D01*
X1323058Y347000D01*
X1321291Y348797D01*
X1319253Y350281D01*
X1317000Y351411D01*
X1314592Y352157D01*
X1312094Y352498D01*
X1309575Y352425D01*
X1307101Y351941D01*
X1304740Y351058D01*
X1302556Y349800D01*
X1300607Y348201D01*
X1298947Y346305D01*
X1297619Y344162D01*
X1296661Y341830D01*
X1296097Y339374D01*
X1295944Y336858D01*
X1296204Y334351D01*
X1296872Y331920D01*
X1297929Y329632D01*
X1299347Y327547D01*
X1301087Y325724D01*
X1363701Y298577D02*
X1362075Y300203D01*
X1360449Y298577D01*
X1362075Y296951D01*
X1363701Y298577D01*
X1312393Y298323D02*
X1310767Y299949D01*
X1309141Y298323D01*
X1310767Y296697D01*
X1312393Y298323D01*
X1352212Y325443D02*
X1354269Y323985D01*
X1356538Y322885D01*
X1358956Y322171D01*
X1361458Y321862D01*
X1363978Y321968D01*
X1366445Y322486D01*
X1368795Y323401D01*
X1370963Y324688D01*
X1372891Y326314D01*
X1374526Y328233D01*
X1375824Y330394D01*
X1376751Y332739D01*
X1377281Y335204D01*
X1377401Y337723D01*
X1377105Y340227D01*
X1376404Y342649D01*
X1375314Y344923D01*
X1373867Y346988D01*
X1372102Y348788D01*
X1370065Y350274D01*
X1367812Y351406D01*
X1365404Y352154D01*
X1362906Y352497D01*
X1360385Y352427D01*
X1357911Y351944D01*
X1355549Y351062D01*
X1353363Y349805D01*
X1351413Y348206D01*
X1349751Y346310D01*
X1348422Y344167D01*
X1347462Y341836D01*
X1346898Y339378D01*
X1346743Y336861D01*
X1347004Y334353D01*
X1347672Y331922D01*
X1348729Y329633D01*
X1350147Y327548D01*
X1351887Y325723D01*
X1183324Y324154D02*
X1185384Y322701D01*
X1187654Y321605D01*
X1190072Y320895D01*
X1192575Y320591D01*
X1195093Y320702D01*
X1197559Y321223D01*
X1199907Y322141D01*
X1202072Y323432D01*
X1203997Y325060D01*
X1205629Y326981D01*
X1206924Y329143D01*
X1207847Y331488D01*
X1208374Y333954D01*
X1208490Y336471D01*
X1208192Y338974D01*
X1207487Y341395D01*
X1206396Y343667D01*
X1204948Y345730D01*
X1203181Y347528D01*
X1201143Y349011D01*
X1198890Y350141D01*
X1196482Y350887D01*
X1193984Y351228D01*
X1191465Y351155D01*
X1188991Y350671D01*
X1186630Y349788D01*
X1184446Y348530D01*
X1182497Y346931D01*
X1180836Y345035D01*
X1179509Y342892D01*
X1178551Y340560D01*
X1177987Y338104D01*
X1177834Y335588D01*
X1178094Y333080D01*
X1178762Y330650D01*
X1179819Y328362D01*
X1181237Y326277D01*
X1182977Y324454D01*
X1245591Y297307D02*
X1243965Y298933D01*
X1242339Y297307D01*
X1243965Y295681D01*
X1245591Y297307D01*
X1194283Y297053D02*
X1192657Y298679D01*
X1191031Y297053D01*
X1192657Y295427D01*
X1194283Y297053D01*
X1234102Y324173D02*
X1236159Y322715D01*
X1238428Y321615D01*
X1240846Y320901D01*
X1243348Y320592D01*
X1245868Y320699D01*
X1248335Y321216D01*
X1250685Y322131D01*
X1252853Y323418D01*
X1254781Y325044D01*
X1256416Y326963D01*
X1257714Y329124D01*
X1258641Y331469D01*
X1259172Y333934D01*
X1259290Y336453D01*
X1258995Y338957D01*
X1258294Y341379D01*
X1257204Y343653D01*
X1255758Y345718D01*
X1253992Y347518D01*
X1251955Y349004D01*
X1249702Y350136D01*
X1247294Y350884D01*
X1244796Y351227D01*
X1242275Y351157D01*
X1239801Y350674D01*
X1237439Y349792D01*
X1235253Y348535D01*
X1233303Y346936D01*
X1231641Y345040D01*
X1230312Y342897D01*
X1229352Y340566D01*
X1228788Y338108D01*
X1228633Y335592D01*
X1228894Y333083D01*
X1229561Y330652D01*
X1230619Y328363D01*
X1232037Y326278D01*
X1233777Y324454D01*
X868299Y324485D02*
X969137D01*
X969645Y337185D02*
Y375285D01*
X868045Y311531D02*
Y375285D01*
Y311531D02*
X869315D01*
Y303657D02*
Y311531D01*
X868045Y303657D02*
X869315D01*
X868045Y299085D02*
Y303657D01*
Y299085D02*
X969645D01*
Y337185D01*
X971169Y304165D02*
Y310515D01*
X918845Y331597D02*
Y369951D01*
X868045Y375285D02*
X969645D01*
X1285875Y362585D02*
X1387475D01*
X1336675Y318897D02*
Y357251D01*
X1388999Y291465D02*
Y297815D01*
X1387475Y286385D02*
Y324485D01*
X1285875Y286385D02*
X1387475D01*
X1285875D02*
Y290957D01*
X1287145D01*
Y298831D01*
X1285875D02*
X1287145D01*
X1285875D02*
Y362585D01*
X1387475Y324485D02*
Y362585D01*
X1286129Y311785D02*
X1386967D01*
X1167765Y361315D02*
X1269365D01*
X1218565Y317627D02*
Y355981D01*
X1270889Y290195D02*
Y296545D01*
X1269365Y285115D02*
Y323215D01*
X1167765Y285115D02*
X1269365D01*
X1167765D02*
Y289687D01*
X1169035D01*
Y297561D01*
X1167765D02*
X1169035D01*
X1167765D02*
Y361315D01*
X1269365Y323215D02*
Y361315D01*
X1168019Y310515D02*
X1268857D01*
D12*
X1141655Y103365D02*
D03*
D13*
X302305Y188815D02*
X300430Y189898D01*
Y187733D01*
X302305Y188815D01*
X291325Y310995D02*
X289450Y312078D01*
Y309912D01*
X291325Y310995D01*
X253915Y152815D02*
X252040Y153897D01*
Y151732D01*
X253915Y152815D01*
D14*
X1196305Y198985D02*
X1194305D01*
X1196305D01*
D15*
X82265Y195065D02*
X94265D01*
X82265Y184665D02*
X94265D01*
X247415Y65505D02*
X252915D01*
X247415D02*
Y70505D01*
X292415Y65505D02*
X297415D01*
Y69505D01*
Y110005D02*
Y115505D01*
X292415D02*
X297415D01*
X247415Y110005D02*
Y115505D01*
X252415D01*
X1005465Y304185D02*
Y370185D01*
X1005565Y304185D02*
X1028415D01*
X1053815D02*
X1075465D01*
Y370185D01*
X1053815D02*
X1075465D01*
X1005565D02*
X1028415D01*
X962845Y207795D02*
X1001845D01*
X962845Y258295D02*
X1001845D01*
X39215Y319885D02*
X99215D01*
Y379885D01*
X39215D02*
X99215D01*
X39215Y319885D02*
Y379885D01*
X82265Y105925D02*
X94265D01*
X82265Y116325D02*
X94265D01*
X82265Y145295D02*
X94265D01*
X82265Y155695D02*
X94265D01*
X961575Y66465D02*
X1000575D01*
X961575Y16085D02*
X1000575D01*
X77965Y250855D02*
X123965D01*
X77965Y222855D02*
X123965D01*
X77965Y245855D02*
Y250855D01*
X123965Y245855D02*
Y250855D01*
X77965Y222855D02*
Y227855D01*
X123965Y222855D02*
Y227855D01*
X113965Y245855D02*
X123965D01*
X113965Y227855D02*
X123965D01*
X113965Y245965D02*
Y250855D01*
Y222855D02*
Y227855D01*
X1201805Y60295D02*
Y215295D01*
X1392805D01*
Y60295D02*
Y215295D01*
X1201805Y60295D02*
X1392805D01*
X1114425Y35665D02*
Y64665D01*
Y35665D02*
X1122045D01*
Y64665D01*
X1114425D02*
X1122045D01*
X100705Y10365D02*
Y70365D01*
X40705Y10365D02*
X100705D01*
X40705D02*
Y70365D01*
X100705D01*
D16*
X250825Y346837D02*
Y350647D01*
X245745D02*
X255905D01*
X1042797Y142875D02*
Y153035D01*
X1038987Y147955D02*
X1042797D01*
D17*
X770444Y92508D02*
X792034D01*
Y114098D01*
X522794Y93778D02*
X534224D01*
X522794D02*
Y107748D01*
X521524Y263958D02*
Y285548D01*
X535494D01*
X794574Y256338D02*
Y284278D01*
X778064D02*
X794574D01*
X995051Y391792D02*
Y381636D01*
X1000129Y376558D01*
X1005208Y381636D01*
Y391792D01*
X1010286Y376558D02*
Y391792D01*
X1017903D01*
X1020443Y389253D01*
Y384175D01*
X1017903Y381636D01*
X1010286D01*
X1015364D02*
X1020443Y376558D01*
X1025521D02*
X1030599D01*
X1028060D01*
Y391792D01*
X1025521Y389253D01*
X937641Y91308D02*
Y78612D01*
X940180Y76073D01*
X945258D01*
X947798Y78612D01*
Y91308D01*
X963033D02*
X952876D01*
Y83691D01*
X957954Y86230D01*
X960494D01*
X963033Y83691D01*
Y78612D01*
X960494Y76073D01*
X955415D01*
X952876Y78612D01*
X1078103Y211450D02*
Y198754D01*
X1080642Y196215D01*
X1085721D01*
X1088260Y198754D01*
Y211450D01*
X1100956Y196215D02*
Y211450D01*
X1093338Y203832D01*
X1103495D01*
X954409Y278762D02*
Y266067D01*
X956948Y263528D01*
X962027D01*
X964566Y266067D01*
Y278762D01*
X969644Y276223D02*
X972183Y278762D01*
X977262D01*
X979801Y276223D01*
Y273684D01*
X977262Y271145D01*
X974723D01*
X977262D01*
X979801Y268606D01*
Y266067D01*
X977262Y263528D01*
X972183D01*
X969644Y266067D01*
X191139Y296542D02*
Y283847D01*
X193678Y281308D01*
X198757D01*
X201296Y283847D01*
Y296542D01*
X216531Y281308D02*
X206374D01*
X216531Y291464D01*
Y294003D01*
X213992Y296542D01*
X208913D01*
X206374Y294003D01*
X305438Y104773D02*
Y92077D01*
X307978Y89537D01*
X313056D01*
X315595Y92077D01*
Y104773D01*
X320673Y89537D02*
X325752D01*
X323213D01*
Y104773D01*
X320673Y102233D01*
X906151Y37468D02*
Y52702D01*
X913768D01*
X916308Y50163D01*
Y45085D01*
X913768Y42546D01*
X906151D01*
X911229D02*
X916308Y37468D01*
X931543Y52702D02*
X921386D01*
Y45085D01*
X926464Y47624D01*
X929003D01*
X931543Y45085D01*
Y40007D01*
X929003Y37468D01*
X923925D01*
X921386Y40007D01*
X936621Y37468D02*
X941699D01*
X939160D01*
Y52702D01*
X936621Y50163D01*
X1091572Y107317D02*
Y122552D01*
X1099189D01*
X1101728Y120013D01*
Y114935D01*
X1099189Y112396D01*
X1091572D01*
X1096650D02*
X1101728Y107317D01*
X1114424D02*
Y122552D01*
X1106807Y114935D01*
X1116963D01*
X1132198Y107317D02*
X1122042D01*
X1132198Y117474D01*
Y120013D01*
X1129659Y122552D01*
X1124581D01*
X1122042Y120013D01*
X1040003Y188595D02*
Y203830D01*
X1047620D01*
X1050160Y201291D01*
Y196213D01*
X1047620Y193673D01*
X1040003D01*
X1045081D02*
X1050160Y188595D01*
X1062856D02*
Y203830D01*
X1055238Y196213D01*
X1065395D01*
X1070473Y188595D02*
X1075552D01*
X1073012D01*
Y203830D01*
X1070473Y201291D01*
X890912Y260987D02*
Y276222D01*
X898529D01*
X901068Y273683D01*
Y268605D01*
X898529Y266066D01*
X890912D01*
X895990D02*
X901068Y260987D01*
X906147Y273683D02*
X908686Y276222D01*
X913764D01*
X916303Y273683D01*
Y271144D01*
X913764Y268605D01*
X911225D01*
X913764D01*
X916303Y266066D01*
Y263527D01*
X913764Y260987D01*
X908686D01*
X906147Y263527D01*
X931538Y260987D02*
X921382D01*
X931538Y271144D01*
Y273683D01*
X928999Y276222D01*
X923921D01*
X921382Y273683D01*
X913771Y178438D02*
Y193673D01*
X921388D01*
X923928Y191133D01*
Y186055D01*
X921388Y183516D01*
X913771D01*
X918849D02*
X923928Y178438D01*
X929006Y191133D02*
X931545Y193673D01*
X936623D01*
X939163Y191133D01*
Y188594D01*
X936623Y186055D01*
X934084D01*
X936623D01*
X939163Y183516D01*
Y180977D01*
X936623Y178438D01*
X931545D01*
X929006Y180977D01*
X944241Y178438D02*
X949319D01*
X946780D01*
Y193673D01*
X944241Y191133D01*
X200032Y20958D02*
Y36193D01*
X207649D01*
X210188Y33653D01*
Y28575D01*
X207649Y26036D01*
X200032D01*
X205110D02*
X210188Y20958D01*
X225423D02*
X215267D01*
X225423Y31114D01*
Y33653D01*
X222884Y36193D01*
X217806D01*
X215267Y33653D01*
X240658Y36193D02*
X235580Y33653D01*
X230502Y28575D01*
Y23497D01*
X233041Y20958D01*
X238119D01*
X240658Y23497D01*
Y26036D01*
X238119Y28575D01*
X230502D01*
X250832Y32387D02*
Y47622D01*
X258449D01*
X260988Y45083D01*
Y40005D01*
X258449Y37466D01*
X250832D01*
X255910D02*
X260988Y32387D01*
X276223D02*
X266067D01*
X276223Y42544D01*
Y45083D01*
X273684Y47622D01*
X268606D01*
X266067Y45083D01*
X291458Y47622D02*
X281302D01*
Y40005D01*
X286380Y42544D01*
X288919D01*
X291458Y40005D01*
Y34927D01*
X288919Y32387D01*
X283841D01*
X281302Y34927D01*
X201302Y84458D02*
Y99692D01*
X208919D01*
X211458Y97153D01*
Y92075D01*
X208919Y89536D01*
X201302D01*
X206380D02*
X211458Y84458D01*
X226693D02*
X216537D01*
X226693Y94614D01*
Y97153D01*
X224154Y99692D01*
X219076D01*
X216537Y97153D01*
X239389Y84458D02*
Y99692D01*
X231772Y92075D01*
X241928D01*
X155582Y46357D02*
Y61592D01*
X163199D01*
X165738Y59053D01*
Y53975D01*
X163199Y51436D01*
X155582D01*
X160660D02*
X165738Y46357D01*
X180973D02*
X170817D01*
X180973Y56514D01*
Y59053D01*
X178434Y61592D01*
X173356D01*
X170817Y59053D01*
X186052D02*
X188591Y61592D01*
X193669D01*
X196208Y59053D01*
Y56514D01*
X193669Y53975D01*
X191130D01*
X193669D01*
X196208Y51436D01*
Y48897D01*
X193669Y46357D01*
X188591D01*
X186052Y48897D01*
X282582Y133988D02*
Y149222D01*
X290199D01*
X292738Y146683D01*
Y141605D01*
X290199Y139066D01*
X282582D01*
X287660D02*
X292738Y133988D01*
X307973D02*
X297817D01*
X307973Y144144D01*
Y146683D01*
X305434Y149222D01*
X300356D01*
X297817Y146683D01*
X323208Y133988D02*
X313052D01*
X323208Y144144D01*
Y146683D01*
X320669Y149222D01*
X315591D01*
X313052Y146683D01*
X272421Y196217D02*
Y211453D01*
X280038D01*
X282577Y208913D01*
Y203835D01*
X280038Y201296D01*
X272421D01*
X277499D02*
X282577Y196217D01*
X297813D02*
X287656D01*
X297813Y206374D01*
Y208913D01*
X295273Y211453D01*
X290195D01*
X287656Y208913D01*
X302891Y196217D02*
X307969D01*
X305430D01*
Y211453D01*
X302891Y208913D01*
X220351Y128907D02*
Y144143D01*
X227969D01*
X230508Y141603D01*
Y136525D01*
X227969Y133986D01*
X220351D01*
X225429D02*
X230508Y128907D01*
X235586D02*
X240665D01*
X238125D01*
Y144143D01*
X235586Y141603D01*
X248282D02*
X250821Y144143D01*
X255900D01*
X258439Y141603D01*
Y139064D01*
X255900Y136525D01*
X258439Y133986D01*
Y131447D01*
X255900Y128907D01*
X250821D01*
X248282Y131447D01*
Y133986D01*
X250821Y136525D01*
X248282Y139064D01*
Y141603D01*
X250821Y136525D02*
X255900D01*
X304171Y112397D02*
Y127633D01*
X311789D01*
X314328Y125093D01*
Y120015D01*
X311789Y117476D01*
X304171D01*
X309249D02*
X314328Y112397D01*
X319406D02*
X324485D01*
X321945D01*
Y127633D01*
X319406Y125093D01*
X332102Y127633D02*
X342259D01*
Y125093D01*
X332102Y114937D01*
Y112397D01*
X813440Y203838D02*
Y219072D01*
X821058D01*
X823597Y216533D01*
Y211455D01*
X821058Y208916D01*
X813440D01*
X818519D02*
X823597Y203838D01*
X828675D02*
X833754D01*
X831215D01*
Y219072D01*
X828675Y216533D01*
X841371Y203838D02*
X846450D01*
X843911D01*
Y219072D01*
X841371Y216533D01*
X205109Y354967D02*
Y370202D01*
X212727D01*
X215266Y367663D01*
Y362585D01*
X212727Y360046D01*
X205109D01*
X210187D02*
X215266Y354967D01*
X230501D02*
X220344D01*
X230501Y365124D01*
Y367663D01*
X227962Y370202D01*
X222883D01*
X220344Y367663D01*
X1104770Y78104D02*
Y88261D01*
X1102231Y90800D01*
X1097152D01*
X1094613Y88261D01*
Y78104D01*
X1097152Y75565D01*
X1102231D01*
X1099691Y80643D02*
X1104770Y75565D01*
X1102231D02*
X1104770Y78104D01*
X1109848Y88261D02*
X1112387Y90800D01*
X1117466D01*
X1120005Y88261D01*
Y85722D01*
X1117466Y83182D01*
X1114926D01*
X1117466D01*
X1120005Y80643D01*
Y78104D01*
X1117466Y75565D01*
X1112387D01*
X1109848Y78104D01*
X233804Y198754D02*
Y208911D01*
X231264Y211450D01*
X226186D01*
X223647Y208911D01*
Y198754D01*
X226186Y196215D01*
X231264D01*
X228725Y201293D02*
X233804Y196215D01*
X231264D02*
X233804Y198754D01*
X249039Y196215D02*
X238882D01*
X249039Y206372D01*
Y208911D01*
X246500Y211450D01*
X241421D01*
X238882Y208911D01*
X333375Y191137D02*
Y201293D01*
X330836Y203832D01*
X325757D01*
X323218Y201293D01*
Y191137D01*
X325757Y188598D01*
X330836D01*
X328297Y193676D02*
X333375Y188598D01*
X330836D02*
X333375Y191137D01*
X338453Y188598D02*
X343532D01*
X340993D01*
Y203832D01*
X338453Y201293D01*
X372999Y47371D02*
Y62606D01*
X380616D01*
X383156Y60067D01*
Y54988D01*
X380616Y52449D01*
X372999D01*
X398391Y47371D02*
X388234D01*
X398391Y57528D01*
Y60067D01*
X395852Y62606D01*
X390773D01*
X388234Y60067D01*
X363858Y329567D02*
Y344803D01*
X371476D01*
X374015Y342263D01*
Y337185D01*
X371476Y334646D01*
X363858D01*
X379093Y329567D02*
X384172D01*
X381633D01*
Y344803D01*
X379093Y342263D01*
X1195451Y240914D02*
Y225679D01*
Y230757D01*
X1205608Y240914D01*
X1197990Y233297D01*
X1205608Y225679D01*
X1210686D02*
X1215764D01*
X1213225D01*
Y240914D01*
X1210686Y238375D01*
X37465Y257173D02*
X32387D01*
X34926D01*
Y244477D01*
X32387Y241938D01*
X29848D01*
X27308Y244477D01*
X42543Y241938D02*
X47622D01*
X45083D01*
Y257173D01*
X42543Y254633D01*
X1287399Y395600D02*
Y380365D01*
Y387982D01*
X1297556D01*
Y395600D01*
Y380365D01*
X1302634Y395600D02*
Y380365D01*
X1310252D01*
X1312791Y382904D01*
Y393061D01*
X1310252Y395600D01*
X1302634D01*
X1317869Y393061D02*
X1320408Y395600D01*
X1325487D01*
X1328026Y393061D01*
Y390522D01*
X1325487Y387982D01*
X1322948D01*
X1325487D01*
X1328026Y385443D01*
Y382904D01*
X1325487Y380365D01*
X1320408D01*
X1317869Y382904D01*
X1169543Y394330D02*
Y379095D01*
Y386712D01*
X1179700D01*
Y394330D01*
Y379095D01*
X1184778Y394330D02*
Y379095D01*
X1192396D01*
X1194935Y381634D01*
Y391791D01*
X1192396Y394330D01*
X1184778D01*
X1210170Y379095D02*
X1200013D01*
X1210170Y389252D01*
Y391791D01*
X1207631Y394330D01*
X1202552D01*
X1200013Y391791D01*
X821061Y334642D02*
Y319408D01*
Y327025D01*
X831217D01*
Y334642D01*
Y319408D01*
X836296Y334642D02*
Y319408D01*
X843913D01*
X846453Y321947D01*
Y332103D01*
X843913Y334642D01*
X836296D01*
X851531Y319408D02*
X856609D01*
X854070D01*
Y334642D01*
X851531Y332103D01*
X1025779Y177922D02*
Y162687D01*
X1033397D01*
X1035936Y165226D01*
Y175383D01*
X1033397Y177922D01*
X1025779D01*
X1041014Y175383D02*
X1043553Y177922D01*
X1048632D01*
X1051171Y175383D01*
Y172844D01*
X1048632Y170305D01*
X1051171Y167765D01*
Y165226D01*
X1048632Y162687D01*
X1043553D01*
X1041014Y165226D01*
Y167765D01*
X1043553Y170305D01*
X1041014Y172844D01*
Y175383D01*
X1043553Y170305D02*
X1048632D01*
X1155069Y125092D02*
Y109858D01*
X1162687D01*
X1165226Y112397D01*
Y122553D01*
X1162687Y125092D01*
X1155069D01*
X1170304D02*
X1180461D01*
Y122553D01*
X1170304Y112397D01*
Y109858D01*
X79121Y140838D02*
Y125603D01*
X86739D01*
X89278Y128142D01*
Y138299D01*
X86739Y140838D01*
X79121D01*
X104513D02*
X99434Y138299D01*
X94356Y133221D01*
Y128142D01*
X96895Y125603D01*
X101974D01*
X104513Y128142D01*
Y130681D01*
X101974Y133221D01*
X94356D01*
X79121Y180208D02*
Y164973D01*
X86739D01*
X89278Y167512D01*
Y177669D01*
X86739Y180208D01*
X79121D01*
X104513D02*
X94356D01*
Y172591D01*
X99434Y175130D01*
X101974D01*
X104513Y172591D01*
Y167512D01*
X101974Y164973D01*
X96895D01*
X94356Y167512D01*
X79379Y216532D02*
Y201297D01*
X86997D01*
X89536Y203837D01*
Y213993D01*
X86997Y216532D01*
X79379D01*
X102232Y201297D02*
Y216532D01*
X94614Y208915D01*
X104771D01*
X70485Y274442D02*
Y259207D01*
X78102D01*
X80642Y261746D01*
Y271903D01*
X78102Y274442D01*
X70485D01*
X85720Y271903D02*
X88259Y274442D01*
X93338D01*
X95877Y271903D01*
Y269364D01*
X93338Y266824D01*
X90798D01*
X93338D01*
X95877Y264285D01*
Y261746D01*
X93338Y259207D01*
X88259D01*
X85720Y261746D01*
X519557Y312796D02*
Y297561D01*
X527174D01*
X529714Y300100D01*
Y310257D01*
X527174Y312796D01*
X519557D01*
X544949Y297561D02*
X534792D01*
X544949Y307718D01*
Y310257D01*
X542410Y312796D01*
X537331D01*
X534792Y310257D01*
X239398Y389253D02*
Y374017D01*
X247016D01*
X249555Y376557D01*
Y386713D01*
X247016Y389253D01*
X239398D01*
X254633Y374017D02*
X259712D01*
X257173D01*
Y389253D01*
X254633Y386713D01*
X888368Y220343D02*
X885829Y222882D01*
X880751D01*
X878212Y220343D01*
Y210187D01*
X880751Y207647D01*
X885829D01*
X888368Y210187D01*
X893447Y220343D02*
X895986Y222882D01*
X901064D01*
X903603Y220343D01*
Y217804D01*
X901064Y215265D01*
X898525D01*
X901064D01*
X903603Y212726D01*
Y210187D01*
X901064Y207647D01*
X895986D01*
X893447Y210187D01*
X918838Y207647D02*
X908682D01*
X918838Y217804D01*
Y220343D01*
X916299Y222882D01*
X911221D01*
X908682Y220343D01*
X893447Y243203D02*
X890908Y245742D01*
X885830D01*
X883291Y243203D01*
Y233047D01*
X885830Y230508D01*
X890908D01*
X893447Y233047D01*
X898526Y243203D02*
X901065Y245742D01*
X906143D01*
X908683Y243203D01*
Y240664D01*
X906143Y238125D01*
X903604D01*
X906143D01*
X908683Y235586D01*
Y233047D01*
X906143Y230508D01*
X901065D01*
X898526Y233047D01*
X913761Y230508D02*
X918839D01*
X916300D01*
Y245742D01*
X913761Y243203D01*
X819788Y187323D02*
X817249Y189862D01*
X812171D01*
X809632Y187323D01*
Y177167D01*
X812171Y174627D01*
X817249D01*
X819788Y177167D01*
X835023Y174627D02*
X824867D01*
X835023Y184784D01*
Y187323D01*
X832484Y189862D01*
X827406D01*
X824867Y187323D01*
X850258Y174627D02*
X840102D01*
X850258Y184784D01*
Y187323D01*
X847719Y189862D01*
X842641D01*
X840102Y187323D01*
X872722Y135257D02*
X875262Y132717D01*
X880340D01*
X882879Y135257D01*
Y145413D01*
X880340Y147952D01*
X875262D01*
X872722Y145413D01*
X857487Y147952D02*
X867644D01*
X857487Y137796D01*
Y135257D01*
X860027Y132717D01*
X865105D01*
X867644Y135257D01*
X852409Y147952D02*
X847331D01*
X849870D01*
Y132717D01*
X852409Y135257D01*
X164468Y100963D02*
X161929Y103503D01*
X156851D01*
X154312Y100963D01*
Y90807D01*
X156851Y88267D01*
X161929D01*
X164468Y90807D01*
X179703Y88267D02*
X169547D01*
X179703Y98424D01*
Y100963D01*
X177164Y103503D01*
X172086D01*
X169547Y100963D01*
X184782D02*
X187321Y103503D01*
X192399D01*
X194938Y100963D01*
Y90807D01*
X192399Y88267D01*
X187321D01*
X184782Y90807D01*
Y100963D01*
X156848Y80643D02*
X154309Y83182D01*
X149230D01*
X146691Y80643D01*
Y70487D01*
X149230Y67948D01*
X154309D01*
X156848Y70487D01*
X161926Y67948D02*
X167005D01*
X164465D01*
Y83182D01*
X161926Y80643D01*
X174622Y70487D02*
X177161Y67948D01*
X182240D01*
X184779Y70487D01*
Y80643D01*
X182240Y83182D01*
X177161D01*
X174622Y80643D01*
Y78104D01*
X177161Y75565D01*
X184779D01*
X144148Y36193D02*
X141609Y38733D01*
X136530D01*
X133991Y36193D01*
Y26037D01*
X136530Y23498D01*
X141609D01*
X144148Y26037D01*
X149226Y23498D02*
X154305D01*
X151765D01*
Y38733D01*
X149226Y36193D01*
X172079Y38733D02*
X161922D01*
Y31115D01*
X167001Y33654D01*
X169540D01*
X172079Y31115D01*
Y26037D01*
X169540Y23498D01*
X164461D01*
X161922Y26037D01*
X160398Y351151D02*
X157858Y353690D01*
X152780D01*
X150241Y351151D01*
Y340994D01*
X152780Y338455D01*
X157858D01*
X160398Y340994D01*
X165476Y338455D02*
X170554D01*
X168015D01*
Y353690D01*
X165476Y351151D01*
X185790Y338455D02*
Y353690D01*
X178172Y346073D01*
X188329D01*
X831216Y239393D02*
X828677Y241933D01*
X823598D01*
X821059Y239393D01*
Y229237D01*
X823598Y226698D01*
X828677D01*
X831216Y229237D01*
X836294D02*
X838833Y226698D01*
X843912D01*
X846451Y229237D01*
Y239393D01*
X843912Y241933D01*
X838833D01*
X836294Y239393D01*
Y236854D01*
X838833Y234315D01*
X846451D01*
X309750Y379345D02*
X307211Y381884D01*
X302132D01*
X299593Y379345D01*
Y369188D01*
X302132Y366649D01*
X307211D01*
X309750Y369188D01*
X314828Y379345D02*
X317367Y381884D01*
X322446D01*
X324985Y379345D01*
Y376806D01*
X322446Y374267D01*
X319906D01*
X322446D01*
X324985Y371727D01*
Y369188D01*
X322446Y366649D01*
X317367D01*
X314828Y369188D01*
X279270Y378583D02*
X276730Y381122D01*
X271652D01*
X269113Y378583D01*
Y368426D01*
X271652Y365887D01*
X276730D01*
X279270Y368426D01*
X284348Y365887D02*
X289426D01*
X286887D01*
Y381122D01*
X284348Y378583D01*
X28584Y314322D02*
Y299088D01*
X36202D01*
X38741Y301627D01*
Y304166D01*
X36202Y306705D01*
X28584D01*
X36202D01*
X38741Y309244D01*
Y311783D01*
X36202Y314322D01*
X28584D01*
X43819D02*
X53976D01*
X48898D01*
Y299088D01*
X59054D02*
Y314322D01*
X69211Y299088D01*
Y314322D01*
X84446Y299088D02*
X74289D01*
X84446Y309244D01*
Y311783D01*
X81907Y314322D01*
X76828D01*
X74289Y311783D01*
X8763Y95880D02*
Y80645D01*
X16380D01*
X18920Y83184D01*
Y85723D01*
X16380Y88263D01*
X8763D01*
X16380D01*
X18920Y90802D01*
Y93341D01*
X16380Y95880D01*
X8763D01*
X23998D02*
X34155D01*
X29076D01*
Y80645D01*
X39233D02*
Y95880D01*
X49390Y80645D01*
Y95880D01*
X54468Y80645D02*
X59547D01*
X57007D01*
Y95880D01*
X54468Y93341D01*
D18*
X1097033Y59760D02*
X1096985Y59713D01*
X1097033Y59665D01*
X1097080Y59713D01*
X1097033Y59760D01*
D19*
X118964Y248355D02*
D03*
X118965Y225355D02*
D03*
M02*
