M48
;Layer_Color=9474304
;FILE_FORMAT=4:4
METRIC,LZ
;TYPE=PLATED
T01F00S00C0.3810
T02F00S00C0.6350
T03F00S00C0.7140
T04F00S00C0.9000
T05F00S00C1.1430
T06F00S00C1.2700
T07F00S00C1.2900
T08F00S00C1.3200
%
T01
X00257175Y00042545
X00235355Y00066905
T02
X00179705Y00032385
X00200025Y00089535
X00941705Y00182035
X00942605Y00202355
X00986155Y00178435
X00912495Y00266065
X00856615Y00262255
Y00236855
X00776605Y00387985
X00491692Y00233478
X00266982Y00151019
X00252925Y00139505
X00225425Y00111125
X00211455Y00100965
X00181948Y00117373
X00191135Y00131445
X00155215Y00372385
X00140335Y00144145
X00120015
X00107315Y00133985
X00106531Y00117475
X00084455Y00133985
X00062865
T03
X01040765Y00311785
Y00362585
X01066165Y00337185
T04
X00384175Y00026035
X00409575
X00434975
X00460375
X00485775
X00511175
X00536575
X00561975
X00587375
X00612775
X00638175
X00663575
X00688975
X00714375
X00739775
X00765175
X00790575
X00815975
X00841375
X00831215Y00365125
X00805815
X00780415
X00755015
X00729615
X00704215
X00678815
X00653415
X00628015
X00602615
X00577215
X00551815
X00526415
X00501015
X00475615
X00450215
X00424815
X00399415
X00374015
T05
X00878205Y00060325
X00942975Y00277495
X00814705Y00249555
X00360045Y00229235
X00340995Y00266065
X00306705Y00249555
X00153035Y00300355
X00128905Y00267335
T06
X01362075Y00337185
X01311275
X01243965Y00335915
X01193165
X00944245Y00349885
X00893445
T07
X01216305Y00137795
T08
X01236305Y00077795
X01358305
Y00197795
X01236305
M30
